<?xml version="1.0" standalone="no"?>
<!DOCTYPE svg PUBLIC "-//W3C//DTD SVG 20010904//EN"
 "http://www.w3.org/TR/2001/REC-SVG-20010904/DTD/svg10.dtd">
<svg version="1.0" xmlns="http://www.w3.org/2000/svg"
 width="1328.000000pt" height="1328.000000pt" viewBox="0 0 1328.000000 1328.000000"
 preserveAspectRatio="xMidYMid meet">
<metadata>
Created by potrace 1.11, written by Peter Selinger 2001-2013
</metadata>
<g transform="translate(0.000000,1328.000000) scale(0.100000,-0.100000)"
fill="#000000" stroke="none">
<path d="M0 6655 l0 -3665 740 0 740 0 1 43 c1 23 1 45 1 48 -3 24 -5 917 -3
1049 0 12 0 228 0 320 0 8 0 182 0 385 l1 370 171 175 c94 96 334 341 533 544
486 497 487 497 498 494 5 -2 22 -26 37 -53 16 -28 56 -97 89 -153 34 -57 62
-106 62 -108 0 -2 15 -27 33 -56 19 -29 45 -73 59 -98 14 -25 48 -82 74 -128
27 -46 54 -91 59 -100 68 -116 112 -191 122 -207 7 -11 18 -31 25 -45 6 -14
20 -36 29 -50 9 -14 26 -41 37 -60 23 -41 68 -118 255 -438 76 -128 137 -237
137 -243 0 -5 4 -9 8 -9 5 0 14 -12 21 -27 7 -16 41 -76 76 -134 35 -59 73
-122 83 -140 23 -40 158 -273 181 -311 9 -14 34 -57 55 -95 22 -37 44 -71 50
-75 6 -4 7 -8 3 -8 -5 0 1 -12 12 -26 12 -15 21 -33 21 -40 0 -8 4 -14 9 -14
5 0 11 -8 14 -17 6 -18 45 -87 75 -133 9 -14 26 -41 37 -61 11 -20 94 -163
185 -318 l165 -281 957 0 958 0 -40 63 c-22 34 -45 69 -50 77 -51 75 -190 292
-190 296 0 3 -8 14 -18 25 -11 10 -25 32 -33 47 -8 15 -17 29 -20 32 -3 3 -12
16 -19 29 -7 14 -17 30 -22 35 -8 10 -110 165 -287 441 -35 55 -67 102 -70
105 -8 7 -29 40 -43 70 -7 14 -20 30 -28 37 -8 7 -11 13 -7 13 5 0 -3 14 -17
31 -14 17 -26 35 -26 40 0 5 -8 17 -17 27 -10 10 -25 31 -33 45 -8 15 -62 99
-120 187 -58 87 -110 167 -115 177 -6 10 -63 98 -128 196 -64 98 -117 182
-117 186 0 4 -9 16 -20 26 -11 10 -20 24 -20 31 0 7 -3 14 -7 16 -10 4 -53 65
-53 74 0 3 -17 31 -39 62 -21 32 -68 102 -103 157 -119 183 -221 339 -277 425
-31 47 -58 90 -61 95 -3 6 -39 62 -81 125 -42 63 -82 126 -89 140 -7 14 -16
27 -19 30 -4 3 -23 30 -42 60 -20 30 -58 89 -84 130 -27 41 -96 147 -153 235
-175 270 -219 336 -286 440 -36 55 -70 105 -75 112 -6 7 -11 14 -11 17 0 3
-20 36 -45 73 l-45 67 39 41 c21 22 83 86 137 142 55 56 144 149 199 206 130
135 562 581 645 667 36 37 169 174 295 305 127 131 264 273 305 316 41 42 165
170 275 284 110 114 238 247 285 295 47 48 186 193 310 321 124 128 233 240
243 248 9 9 17 19 17 23 0 5 -445 8 -990 8 l-989 0 -38 -41 c-21 -23 -51 -56
-68 -74 -104 -112 -208 -224 -232 -251 -15 -17 -66 -73 -113 -124 -47 -51 -96
-105 -110 -120 -49 -54 -196 -213 -235 -255 -22 -24 -76 -82 -120 -130 -44
-49 -93 -102 -109 -119 -102 -111 -141 -153 -221 -241 -49 -54 -101 -110 -113
-124 -35 -38 -203 -220 -232 -252 -14 -15 -61 -66 -105 -114 -44 -48 -100
-109 -125 -135 -25 -27 -72 -78 -105 -115 -33 -37 -80 -89 -105 -115 -25 -27
-79 -85 -120 -130 -41 -45 -88 -97 -105 -115 -51 -55 -147 -159 -225 -245 -41
-45 -88 -97 -105 -114 -32 -34 -177 -192 -241 -264 -97 -107 -155 -165 -160
-160 -3 3 -5 14 -5 24 0 11 0 134 0 274 0 140 0 262 0 270 0 8 0 224 0 480 0
256 0 471 0 478 -1 779 0 1267 3 1291 0 3 0 99 -1 214 l-1 207 -740 0 -740 0
0 -3665z"/>
<path d="M7397 10313 c-3 -7 -2 -7278 2 -7310 1 -10 145 -13 686 -13 l685 0 1
2363 c1 1299 0 2372 -1 2385 -2 34 6 27 43 -35 19 -32 58 -96 87 -143 29 -47
60 -98 69 -115 9 -16 22 -34 29 -38 6 -4 12 -12 12 -17 0 -4 50 -89 110 -187
61 -98 114 -185 119 -193 5 -8 58 -93 118 -189 59 -95 115 -185 123 -200 9
-14 33 -53 54 -86 22 -33 44 -69 50 -80 6 -11 88 -143 181 -293 180 -289 210
-338 221 -362 4 -8 10 -17 14 -20 3 -3 32 -48 64 -100 61 -102 60 -100 123
-201 72 -115 123 -201 123 -205 0 -3 5 -10 10 -17 16 -19 51 -73 119 -187 35
-58 74 -121 86 -140 52 -80 305 -492 305 -496 0 -3 5 -10 10 -17 21 -24 90
-138 90 -147 0 -6 3 -10 8 -10 7 0 21 -22 44 -72 7 -16 16 -28 20 -28 4 0 8
-7 8 -15 0 -8 3 -15 8 -15 4 0 12 -10 18 -23 22 -44 197 -322 208 -329 6 -4 7
-8 3 -8 -4 0 7 -21 25 -47 18 -27 40 -60 48 -75 8 -15 48 -81 88 -145 40 -65
79 -127 85 -138 7 -11 22 -34 34 -52 13 -17 23 -34 23 -37 0 -6 156 -257 170
-273 8 -10 171 -13 750 -13 l740 0 0 3665 0 3665 -688 0 -687 0 0 -2445 c0
-1345 -1 -2445 -1 -2445 -1 0 -23 35 -49 78 -27 42 -63 100 -81 129 -19 28
-34 56 -34 62 0 6 -4 11 -10 11 -5 0 -10 4 -10 9 0 5 -77 134 -171 287 -94
154 -180 295 -191 314 -11 19 -29 47 -39 62 -11 14 -19 31 -19 37 0 6 -4 11
-9 11 -5 0 -11 8 -15 18 -6 18 -27 53 -37 62 -3 3 -9 12 -12 20 -4 8 -17 31
-30 51 -12 19 -35 57 -52 85 -16 27 -32 51 -36 54 -3 3 -9 15 -13 28 -4 12
-12 22 -17 22 -5 0 -9 5 -9 11 0 7 -16 36 -35 65 -19 29 -35 57 -35 62 0 6 -3
12 -7 14 -7 2 -86 129 -152 240 -9 15 -47 78 -86 140 -38 62 -72 117 -74 123
-2 5 -13 20 -24 33 -11 12 -17 22 -14 22 4 0 -9 22 -28 50 -19 27 -35 52 -35
54 0 2 -45 78 -101 168 -56 89 -107 174 -115 188 -8 14 -24 39 -34 55 -11 17
-23 38 -26 48 -4 9 -10 17 -15 17 -5 0 -9 4 -9 9 0 9 -58 109 -70 121 -6 6
-29 46 -47 81 -7 15 -20 32 -28 39 -8 7 -15 16 -15 21 0 11 -63 113 -72 117
-5 2 -8 8 -8 12 0 5 -28 54 -62 110 -35 55 -70 113 -79 128 -43 72 -144 238
-149 242 -3 3 -12 19 -20 35 -8 17 -17 32 -20 35 -12 11 -90 142 -90 151 0 5
-4 9 -10 9 -5 0 -10 5 -10 10 0 6 -15 34 -34 63 -18 28 -73 117 -121 197 -48
80 -101 164 -116 187 -16 23 -29 43 -29 46 0 6 -297 489 -310 504 -5 7 -10 15
-10 18 0 3 -17 32 -37 65 l-38 60 -717 0 c-394 0 -719 -3 -721 -7z"/>
</g>
</svg>
