<?xml version="1.0" standalone="no"?>
<!DOCTYPE svg PUBLIC "-//W3C//DTD SVG 20010904//EN"
 "http://www.w3.org/TR/2001/REC-SVG-20010904/DTD/svg10.dtd">
<svg version="1.0" xmlns="http://www.w3.org/2000/svg"
 width="700.000000pt" height="700.000000pt" viewBox="0 0 700.000000 700.000000"
 preserveAspectRatio="xMidYMid meet">
<metadata>
Created by potrace 1.11, written by Peter Selinger 2001-2013
</metadata>
<g transform="translate(0.000000,700.000000) scale(0.100000,-0.100000)"
fill="#000000" stroke="none">
<path d="M1745 5250 l-1750 -1750 1752 -1752 1753 -1753 1752 1753 1753 1752
-1750 1750 c-962 962 -1752 1750 -1755 1750 -3 0 -793 -788 -1755 -1750z m345
-1196 c0 -258 4 -444 9 -442 5 2 192 202 415 446 l407 442 265 0 266 0 -137
-142 c-76 -79 -245 -254 -376 -389 l-239 -246 395 -608 c217 -334 395 -609
395 -611 0 -2 -114 -4 -254 -4 l-253 0 -273 465 c-149 256 -275 467 -279 470
-4 2 -83 -71 -174 -164 l-167 -167 0 -302 0 -302 -195 0 -195 0 0 1000 0 1000
195 0 195 0 0 -446z m2426 -223 c225 -368 412 -667 417 -664 4 2 7 303 7 669
l0 664 180 0 180 0 0 -1000 0 -1000 -198 0 -197 0 -405 655 -405 656 -3 -656
-2 -655 -185 0 -185 0 0 1000 0 1000 193 0 194 0 409 -669z"/>
</g>
</svg>
